<?xml version="1.0" encoding="UTF-8" standalone="no"?>
<!-- Created with Inkscape (http://www.inkscape.org/) -->

<svg
   xmlns:osb="http://www.openswatchbook.org/uri/2009/osb"
   xmlns:dc="http://purl.org/dc/elements/1.1/"
   xmlns:cc="http://creativecommons.org/ns#"
   xmlns:rdf="http://www.w3.org/1999/02/22-rdf-syntax-ns#"
   xmlns:svg="http://www.w3.org/2000/svg"
   xmlns="http://www.w3.org/2000/svg"
   xmlns:xlink="http://www.w3.org/1999/xlink"
   xmlns:sodipodi="http://sodipodi.sourceforge.net/DTD/sodipodi-0.dtd"
   xmlns:inkscape="http://www.inkscape.org/namespaces/inkscape"
   width="744.09448819"
   height="1052.3622047"
   id="svg2"
   version="1.1"
   inkscape:version="0.48.3.1 r9886"
   sodipodi:docname="network.svg">
  <defs
     id="defs4">
    <marker
       inkscape:stockid="Arrow1Mend"
       orient="auto"
       refY="0.0"
       refX="0.0"
       id="Arrow1Mend"
       style="overflow:visible;">
      <path
         id="path4143"
         d="M 0.0,0.0 L 5.0,-5.0 L -12.5,0.0 L 5.0,5.0 L 0.0,0.0 z "
         style="fill-rule:evenodd;stroke:#000000;stroke-width:1.0pt;"
         transform="scale(0.4) rotate(180) translate(10,0)" />
    </marker>
    <marker
       inkscape:stockid="Arrow1Mstart"
       orient="auto"
       refY="0.0"
       refX="0.0"
       id="Arrow1Mstart"
       style="overflow:visible">
      <path
         id="path4140"
         d="M 0.0,0.0 L 5.0,-5.0 L -12.5,0.0 L 5.0,5.0 L 0.0,0.0 z "
         style="fill-rule:evenodd;stroke:#000000;stroke-width:1.0pt"
         transform="scale(0.4) translate(10,0)" />
    </marker>
    <marker
       inkscape:stockid="Arrow1Lstart"
       orient="auto"
       refY="0.0"
       refX="0.0"
       id="Arrow1Lstart"
       style="overflow:visible">
      <path
         id="path4134"
         d="M 0.0,0.0 L 5.0,-5.0 L -12.5,0.0 L 5.0,5.0 L 0.0,0.0 z "
         style="fill-rule:evenodd;stroke:#000000;stroke-width:1.0pt"
         transform="scale(0.8) translate(12.5,0)" />
    </marker>
    <marker
       inkscape:stockid="Arrow2Lend"
       orient="auto"
       refY="0.0"
       refX="0.0"
       id="Arrow2Lend"
       style="overflow:visible;">
      <path
         id="path4155"
         style="fill-rule:evenodd;stroke-width:0.62500000;stroke-linejoin:round;"
         d="M 8.7185878,4.0337352 L -2.2072895,0.016013256 L 8.7185884,-4.0017078 C 6.9730900,-1.6296469 6.9831476,1.6157441 8.7185878,4.0337352 z "
         transform="scale(1.1) rotate(180) translate(1,0)" />
    </marker>
    <inkscape:perspective
       sodipodi:type="inkscape:persp3d"
       inkscape:vp_x="0 : 526.18109 : 1"
       inkscape:vp_y="0 : 1000 : 0"
       inkscape:vp_z="744.09448 : 526.18109 : 1"
       inkscape:persp3d-origin="372.04724 : 350.78739 : 1"
       id="perspective3774" />
    <linearGradient
       id="linearGradient3755"
       osb:paint="solid">
      <stop
         style="stop-color:#0090ff;stop-opacity:1;"
         offset="0"
         id="stop3757" />
    </linearGradient>
    <marker
       inkscape:stockid="Arrow2Lend"
       orient="auto"
       refY="0"
       refX="0"
       id="Arrow2Lend-3"
       style="overflow:visible">
      <path
         inkscape:connector-curvature="0"
         id="path4155-7"
         style="fill-rule:evenodd;stroke-width:0.625;stroke-linejoin:round"
         d="M 8.7185878,4.0337352 -2.2072895,0.01601326 8.7185884,-4.0017078 c -1.7454984,2.3720609 -1.7354408,5.6174519 -6e-7,8.035443 z"
         transform="matrix(-1.1,0,0,-1.1,-1.1,0)" />
    </marker>
    <marker
       inkscape:stockid="Arrow1Mstart"
       orient="auto"
       refY="0"
       refX="0"
       id="Arrow1Mstart-5"
       style="overflow:visible">
      <path
         inkscape:connector-curvature="0"
         id="path4140-5"
         d="M 0,0 5,-5 -12.5,0 5,5 0,0 z"
         style="fill-rule:evenodd;stroke:#000000;stroke-width:1pt"
         transform="matrix(0.4,0,0,0.4,4,0)" />
    </marker>
    <marker
       inkscape:stockid="Arrow1Mend"
       orient="auto"
       refY="0"
       refX="0"
       id="Arrow1Mend-5"
       style="overflow:visible">
      <path
         inkscape:connector-curvature="0"
         id="path4143-1"
         d="M 0,0 5,-5 -12.5,0 5,5 0,0 z"
         style="fill-rule:evenodd;stroke:#000000;stroke-width:1pt"
         transform="matrix(-0.4,0,0,-0.4,-4,0)" />
    </marker>
    <linearGradient
       inkscape:collect="always"
       xlink:href="#linearGradient3755"
       id="linearGradient3072"
       gradientUnits="userSpaceOnUse"
       x1="109.60663"
       y1="112.92032"
       x2="192.42899"
       y2="112.92032" />
    <marker
       inkscape:stockid="Arrow1Mstart"
       orient="auto"
       refY="0"
       refX="0"
       id="Arrow1Mstart-5-2"
       style="overflow:visible">
      <path
         inkscape:connector-curvature="0"
         id="path4140-5-8"
         d="M 0,0 5,-5 -12.5,0 5,5 0,0 z"
         style="fill-rule:evenodd;stroke:#000000;stroke-width:1pt"
         transform="matrix(0.4,0,0,0.4,4,0)" />
    </marker>
    <marker
       inkscape:stockid="Arrow1Mend"
       orient="auto"
       refY="0"
       refX="0"
       id="Arrow1Mend-5-0"
       style="overflow:visible">
      <path
         inkscape:connector-curvature="0"
         id="path4143-1-3"
         d="M 0,0 5,-5 -12.5,0 5,5 0,0 z"
         style="fill-rule:evenodd;stroke:#000000;stroke-width:1pt"
         transform="matrix(-0.4,0,0,-0.4,-4,0)" />
    </marker>
    <marker
       inkscape:stockid="Arrow1Mstart"
       orient="auto"
       refY="0"
       refX="0"
       id="Arrow1Mstart-5-7"
       style="overflow:visible">
      <path
         inkscape:connector-curvature="0"
         id="path4140-5-1"
         d="M 0,0 5,-5 -12.5,0 5,5 0,0 z"
         style="fill-rule:evenodd;stroke:#000000;stroke-width:1pt"
         transform="matrix(0.4,0,0,0.4,4,0)" />
    </marker>
    <marker
       inkscape:stockid="Arrow1Mend"
       orient="auto"
       refY="0"
       refX="0"
       id="Arrow1Mend-5-6"
       style="overflow:visible">
      <path
         inkscape:connector-curvature="0"
         id="path4143-1-1"
         d="M 0,0 5,-5 -12.5,0 5,5 0,0 z"
         style="fill-rule:evenodd;stroke:#000000;stroke-width:1pt"
         transform="matrix(-0.4,0,0,-0.4,-4,0)" />
    </marker>
  </defs>
  <sodipodi:namedview
     id="base"
     pagecolor="#ffffff"
     bordercolor="#666666"
     borderopacity="1.0"
     inkscape:pageopacity="0.0"
     inkscape:pageshadow="2"
     inkscape:zoom="1.4"
     inkscape:cx="320.7496"
     inkscape:cy="875.56183"
     inkscape:document-units="px"
     inkscape:current-layer="layer1"
     showgrid="false"
     inkscape:window-width="1301"
     inkscape:window-height="744"
     inkscape:window-x="65"
     inkscape:window-y="24"
     inkscape:window-maximized="1" />
  <metadata
     id="metadata7">
    <rdf:RDF>
      <cc:Work
         rdf:about="">
        <dc:format>image/svg+xml</dc:format>
        <dc:type
           rdf:resource="http://purl.org/dc/dcmitype/StillImage" />
        <dc:title />
      </cc:Work>
    </rdf:RDF>
  </metadata>
  <g
     inkscape:label="Layer 1"
     inkscape:groupmode="layer"
     id="layer1">
    <g
       id="g3068"
       transform="matrix(0.68690486,0,0,0.67042823,50.443512,12.978281)">
      <path
         transform="matrix(1.2682927,0,0,1.2682927,-29.540802,-41.407372)"
         d="m 191.92899,112.92032 c 0,22.87357 -18.31656,41.41625 -40.91118,41.41625 -22.59462,0 -40.91118,-18.54268 -40.91118,-41.41625 0,-22.873568 18.31656,-41.416257 40.91118,-41.416257 22.59462,0 40.91118,18.542689 40.91118,41.416257 z"
         sodipodi:ry="41.416256"
         sodipodi:rx="40.911179"
         sodipodi:cy="112.92032"
         sodipodi:cx="151.01781"
         id="path2985"
         style="fill:url(#linearGradient3072);fill-opacity:1;fill-rule:evenodd;stroke:none"
         sodipodi:type="arc" />
      <path
         transform="matrix(1.3958333,0,0,1.3958333,-55.372701,-66.836799)"
         d="m 209.10158,181.61069 c 0,26.77881 -23.29143,48.48732 -52.02286,48.48732 -28.73143,0 -52.02286,-21.70851 -52.02286,-48.48732 0,-26.77881 23.29143,-48.48733 52.02286,-48.48733 28.73143,0 52.02286,21.70852 52.02286,48.48733 z"
         sodipodi:ry="48.487324"
         sodipodi:rx="52.022858"
         sodipodi:cy="181.61069"
         sodipodi:cx="157.07872"
         id="path3761"
         style="fill:#0090ff;fill-opacity:1;stroke:none"
         sodipodi:type="arc" />
    </g>
    <text
       xml:space="preserve"
       style="font-size:40px;font-style:normal;font-weight:normal;line-height:125%;letter-spacing:0px;word-spacing:0px;fill:#000000;fill-opacity:1;stroke:none;font-family:Sans"
       x="147.494"
       y="135.8046"
       id="text3026-0"
       sodipodi:linespacing="125%"><tspan
         sodipodi:role="line"
         id="tspan3028-9"
         x="147.494"
         y="135.8046"
         style="font-size:11px">&quot;Paul&quot;</tspan></text>
    <text
       xml:space="preserve"
       style="font-size:40px;font-style:normal;font-weight:normal;line-height:125%;letter-spacing:0px;word-spacing:0px;fill:#000000;fill-opacity:1;stroke:none;font-family:Sans"
       x="438.57144"
       y="152.36218"
       id="text3860"
       sodipodi:linespacing="125%"><tspan
         sodipodi:role="line"
         id="tspan3862"
         x="438.57144"
         y="152.36218" /></text>
    <rect
       style="fill:none;stroke:#000000;stroke-width:0.40255573;stroke-opacity:1"
       id="rect3885"
       width="69.052483"
       height="47.812088"
       x="262.27271"
       y="115.5631"
       rx="3.3734818"
       ry="5.124301" />
    <text
       xml:space="preserve"
       style="font-size:40px;font-style:normal;font-weight:normal;line-height:125%;letter-spacing:0px;word-spacing:0px;fill:#000000;fill-opacity:1;stroke:none;font-family:Sans"
       x="275.08774"
       y="141.93581"
       id="text3026-0-7"
       sodipodi:linespacing="125%"><tspan
         sodipodi:role="line"
         id="tspan3028-9-0"
         x="275.08774"
         y="141.93581"
         style="font-size:12px;font-weight:bold;-inkscape-font-specification:Sans Bold">Server</tspan></text>
    <text
       xml:space="preserve"
       style="font-size:40px;font-style:normal;font-weight:normal;line-height:125%;letter-spacing:0px;word-spacing:0px;fill:#000000;fill-opacity:1;stroke:none;font-family:Sans"
       x="140.74269"
       y="117.99432"
       id="text3026-0-7-0"
       sodipodi:linespacing="125%"><tspan
         sodipodi:role="line"
         id="tspan3028-9-0-0"
         x="140.74269"
         y="117.99432"
         style="font-size:12px;font-weight:bold;-inkscape-font-specification:Sans Bold">Module</tspan></text>
    <path
       style="fill:none;stroke:#26aa00;stroke-width:1.461;stroke-linecap:butt;stroke-linejoin:miter;stroke-miterlimit:4;stroke-opacity:1;stroke-dasharray:2.922,1.461;stroke-dashoffset:0;marker-end:url(#Arrow1Mend-5);marker-start:url(#Arrow1Mstart-5)"
       d="M 382.90946,121.61083 331.5672,137.89942"
       id="path4938-5"
       inkscape:connector-curvature="0" />
    <path
       style="fill:none;stroke:#26aa00;stroke-width:1.39999998;stroke-linecap:butt;stroke-linejoin:miter;stroke-miterlimit:4;stroke-opacity:1;stroke-dasharray:2.8, 1.4;stroke-dashoffset:0"
       d="m 103.43356,317.42737 c 20.5892,0 20.2819,0 20.2819,0"
       id="path6470"
       inkscape:connector-curvature="0" />
    <g
       id="g3910"
       transform="matrix(1.1372379,0,0,1.0327313,138.558,-46.546114)">
      <path
         transform="matrix(0.70710678,-0.70710678,0.70710678,0.70710678,-155.95711,191.67309)"
         d="m 187.33028,266.64789 c 0,13.80712 -18.11047,25 -40.45085,25 -22.34039,0 -40.45086,-11.19288 -40.45086,-25 0,-13.80712 18.11047,-25 40.45086,-25 22.34038,0 40.45085,11.19288 40.45085,25 z"
         sodipodi:ry="25"
         sodipodi:rx="40.450851"
         sodipodi:cy="266.64789"
         sodipodi:cx="146.87943"
         id="path3074"
         style="fill:#008012;fill-opacity:1;stroke:none"
         sodipodi:type="arc" />
      <path
         transform="matrix(0.70710678,0.70710678,-0.70710678,0.70710678,221.83195,12.382785)"
         d="m 187.33028,266.64789 c 0,13.80712 -18.11047,25 -40.45085,25 -22.34039,0 -40.45086,-11.19288 -40.45086,-25 0,-13.80712 18.11047,-25 40.45086,-25 22.34038,0 40.45085,11.19288 40.45085,25 z"
         sodipodi:ry="25"
         sodipodi:rx="40.450851"
         sodipodi:cy="266.64789"
         sodipodi:cx="146.87943"
         id="path3074-2"
         style="fill:#008012;fill-opacity:1;stroke:none"
         sodipodi:type="arc" />
    </g>
    <g
       id="g3926"
       transform="matrix(1.1857048,0,0,1.1857048,-2.4596413,-162.63801)">
      <path
         d="m 366.42857,213.79076 c 0,8.67876 -7.35532,15.71428 -16.42857,15.71428 -9.07325,0 -16.42857,-7.03552 -16.42857,-15.71428 0,-8.67876 7.35532,-15.71429 16.42857,-15.71429 9.07325,0 16.42857,7.03553 16.42857,15.71429 z"
         sodipodi:ry="15.714286"
         sodipodi:rx="16.428572"
         sodipodi:cy="213.79076"
         sodipodi:cx="350"
         id="path3920"
         style="fill:#f5f34a;fill-opacity:1;stroke:none"
         sodipodi:type="arc" />
      <path
         transform="translate(5.7142857,-17.142857)"
         d="m 370.71428,252.36218 c 0,18.54099 -11.67257,33.57143 -26.07143,33.57143 -14.39885,0 -26.07143,-15.03044 -26.07143,-33.57143 0,-18.54099 11.67258,-33.57143 26.07143,-33.57143 14.39886,0 26.07143,15.03044 26.07143,33.57143 z"
         sodipodi:ry="33.57143"
         sodipodi:rx="26.071428"
         sodipodi:cy="252.36218"
         sodipodi:cx="344.64285"
         id="path3922"
         style="fill:#f5f34a;fill-opacity:1;stroke:none"
         sodipodi:type="arc" />
    </g>
    <text
       xml:space="preserve"
       style="font-size:40px;font-style:normal;font-weight:normal;line-height:125%;letter-spacing:0px;word-spacing:0px;fill:#000000;fill-opacity:1;stroke:none;font-family:Sans"
       x="391.87051"
       y="108.59296"
       id="text3026-0-7-0-4"
       sodipodi:linespacing="125%"><tspan
         sodipodi:role="line"
         id="tspan3028-9-0-0-5"
         x="391.87051"
         y="108.59296"
         style="font-size:12px;font-weight:bold;-inkscape-font-specification:Sans Bold">Module</tspan></text>
    <text
       xml:space="preserve"
       style="font-size:40px;font-style:normal;font-weight:normal;line-height:125%;letter-spacing:0px;word-spacing:0px;fill:#000000;fill-opacity:1;stroke:none;font-family:Sans"
       x="393.3757"
       y="125.10779"
       id="text3026-0-0"
       sodipodi:linespacing="125%"><tspan
         sodipodi:role="line"
         id="tspan3028-9-01"
         x="393.3757"
         y="125.10779"
         style="font-size:11px">&quot;Tanja&quot;</tspan></text>
    <text
       xml:space="preserve"
       style="font-size:40px;font-style:normal;font-weight:normal;line-height:125%;letter-spacing:0px;word-spacing:0px;fill:#000000;fill-opacity:1;stroke:none;font-family:Sans"
       x="264.06232"
       y="259.9422"
       id="text3026-0-5"
       sodipodi:linespacing="125%"><tspan
         sodipodi:role="line"
         id="tspan3028-9-1"
         x="264.06232"
         y="259.9422"
         style="font-size:11px">&quot;Mama&quot;</tspan></text>
    <text
       xml:space="preserve"
       style="font-size:40px;font-style:normal;font-weight:normal;line-height:125%;letter-spacing:0px;word-spacing:0px;fill:#000000;fill-opacity:1;stroke:none;font-family:Sans"
       x="267.3056"
       y="245.70334"
       id="text3026-0-7-0-3"
       sodipodi:linespacing="125%"><tspan
         sodipodi:role="line"
         id="tspan3028-9-0-0-9"
         x="267.3056"
         y="245.70334"
         style="font-size:12px;font-weight:bold;-inkscape-font-specification:Sans Bold">Module</tspan></text>
    <path
       style="fill:none;stroke:#26aa00;stroke-width:1.39999998;stroke-linecap:butt;stroke-linejoin:miter;stroke-miterlimit:4;stroke-opacity:1;stroke-dasharray:2.8, 1.4;stroke-dashoffset:0;marker-start:url(#Arrow1Mstart-5);marker-end:url(#Arrow1Mend-5)"
       d="m 296.91309,205.45526 0.45952,-37.95346"
       id="path4938-5-6"
       inkscape:connector-curvature="0" />
    <path
       style="fill:none;stroke:#26aa00;stroke-width:1.46099997;stroke-linecap:butt;stroke-linejoin:miter;stroke-miterlimit:4;stroke-opacity:1;stroke-dasharray:2.922, 1.461;stroke-dashoffset:0;marker-start:url(#Arrow1Mstart-5);marker-end:url(#Arrow1Mend-5)"
       d="m 211.08888,114.96884 47.82224,24.78669"
       id="path4938-5-5"
       inkscape:connector-curvature="0" />
    <text
       xml:space="preserve"
       style="font-size:40px;font-style:normal;font-weight:normal;line-height:125%;letter-spacing:0px;word-spacing:0px;fill:#000000;fill-opacity:1;stroke:none;font-family:Sans"
       x="133.58026"
       y="321.82544"
       id="text3026-0-0-0"
       sodipodi:linespacing="125%"><tspan
         sodipodi:role="line"
         id="tspan3028-9-01-8"
         x="133.58026"
         y="321.82544"
         style="font-size:11px">Wireless communication</tspan></text>
  </g>
</svg>
